<svg xmlns="http://www.w3.org/2000/svg" version="1.1" xmlns:xlink="http://www.w3.org/1999/xlink" xmlns:svgjs="http://svgjs.dev/svgjs" width="2000" height="1260" viewBox="0 0 2000 1260"><g transform="matrix(1,0,0,1,-1.268110875214461,0.5101214574898449)"><svg viewBox="0 0 392 247" data-background-color="#ffffff" preserveAspectRatio="xMidYMid meet" height="1260" width="2000" xmlns="http://www.w3.org/2000/svg" xmlns:xlink="http://www.w3.org/1999/xlink"><g id="tight-bounds" transform="matrix(1,0,0,1,0.24854973154202753,-0.09999999999999432)"><svg viewBox="0 0 391.50290053691594 247.2" height="247.2" width="391.50290053691594"><g><svg viewBox="0 0 395.52 249.7364486084586" height="247.2" width="391.50290053691594"><g transform="matrix(1,0,0,1,0,154.34714416945127)"><svg viewBox="0 0 395.52 95.38930443900735" height="95.38930443900735" width="395.52"><g><svg viewBox="0 0 395.52 95.38930443900735" height="95.38930443900735" width="395.52"><g><svg viewBox="0 0 395.52 95.38930443900735" height="95.38930443900735" width="395.52"><g transform="matrix(1,0,0,1,0,0)"><svg width="395.52" viewBox="1.27 -33.08 139.67999999999998 33.69" height="95.38930443900735" data-palette-color="#282c34"><g class="undefined-text-0" data-fill-palette-color="primary" id="text-0"><path d="M18.75-33.08L18.75-33.08Q23.32-33.08 26.54-31.49L26.54-31.49 26.54-24.02 26.49-23.97Q25.12-26.07 20.73-26.76L20.73-26.76Q19.43-26.98 17.46-26.98 15.48-26.98 13.57-26.23 11.67-25.49 10.45-24.12L10.45-24.12Q8.08-21.46 8.08-16.53L8.08-16.53Q8.08-10.79 11.08-7.98L11.08-7.98Q13.57-5.64 17.68-5.64L17.68-5.64Q22.31-5.64 25.2-7.62L25.2-7.62Q26.25-8.33 26.98-9.38L26.98-9.38 27.05-9.33 27.05-2.49Q23.32 0.61 16.99 0.61L16.99 0.61Q9.55 0.61 5.32-4.13L5.32-4.13Q1.27-8.64 1.27-16.09L1.27-16.09Q1.27-23.97 5.71-28.52L5.71-28.52Q10.21-33.08 18.75-33.08ZM38.35-17.77L38.35-2.73Q38.35-0.63 38.45 0L38.45 0 32.37 0 32.37-25.51 38.35-25.51 38.35-23.63Q40.43-26 42.71-26 44.99-26 46.31-25.44L46.31-25.44 45.87-18.87 45.77-18.8Q44.92-20.31 42.23-20.31L42.23-20.31Q41.21-20.31 40.15-19.62 39.08-18.92 38.35-17.77L38.35-17.77ZM64.57 0L64.57-2.22Q61.45 0.37 57.76 0.37L57.76 0.37Q53.8 0.37 51.56-2.29L51.56-2.29Q49.41-4.88 49.41-9.4L49.41-9.4 49.41-19.09Q49.41-23.97 49.2-24.69 48.99-25.42 48.9-25.61L48.9-25.61Q50.02-25.51 51.24-25.51L51.24-25.51 53.27-25.51Q54.07-25.51 55.39-25.59L55.39-25.59 55.39-11.45Q55.39-6.42 58.12-5.62L58.12-5.62Q58.95-5.37 59.93-5.37L59.93-5.37Q62.81-5.37 64.57-7.47L64.57-7.47 64.57-25.51 70.62-25.51 70.62-3.13Q70.62-0.98 70.82 0L70.82 0 64.57 0ZM75.07 0L83.95-13.01 75.31-25.51 82.95-25.51 87.47-17.72 92.35-25.51 99.46-25.51Q99.43-25.51 98.92-24.8L98.92-24.8 90.96-13.45 99.99 0 92.42 0 87.54-8.28 82.71 0 75.07 0ZM108.85-7.03L106.56 0.2Q104.46 0 101.65 0L101.65 0 99.72 0 110.34-29.76Q111.05-31.76 111.05-32.09 111.05-32.42 111.03-32.5L111.03-32.5 111.05-32.54Q112.64-32.47 114.42-32.47L114.42-32.47Q115.88-32.47 117.93-32.52L117.93-32.52 117.96-32.47Q117.91-32.37 117.91-32.2L117.91-32.2Q117.91-31.74 118.64-29.74L118.64-29.74 129.48 0.07Q128.99 0.05 128.33 0.05L128.33 0.05Q128.33 0.05 127.07 0L127.07 0Q126.45 0 125.97 0L125.97 0 122.18 0 119.89-7.03 108.85-7.03ZM110.71-12.89L117.98-12.89 114.3-24.24 110.71-12.89ZM134.17 0L134.17-32.57Q136.61-32.47 137.12-32.47L137.12-32.47 138.88-32.47Q140.17-32.47 140.95-32.67L140.95-32.67 140.93 0 134.17 0Z" fill="#ffffff" data-fill-palette-color="primary"></path></g></svg></g></svg></g></svg></g></svg></g><g transform="matrix(1,0,0,1,140.34157406221598,0)"><svg viewBox="0 0 114.83685187556802 131.82801873470817" height="131.82801873470817" width="114.83685187556802"><g><svg xmlns="http://www.w3.org/2000/svg" xmlns:xlink="http://www.w3.org/1999/xlink" version="1.1" x="0" y="0" viewBox="10.1 5.2 78.4 90" enable-background="new 0 0 100 100" xml:space="preserve" height="131.82801873470817" width="114.83685187556802" class="icon-icon-0" data-fill-palette-color="accent" id="icon-0"><polygon fill-rule="evenodd" clip-rule="evenodd" fill="#ffffff" points="88.5,28.2 68.4,59.9 68.5,22.3 " data-fill-palette-color="accent"></polygon><polygon fill-rule="evenodd" clip-rule="evenodd" fill="#ffffff" points="49.8,5.2 67.2,38.5 34.7,19.6 " data-fill-palette-color="accent"></polygon><polygon fill-rule="evenodd" clip-rule="evenodd" fill="#ffffff" points="67.8,38.3 67.8,22.3 60.8,24.5 " data-fill-palette-color="accent"></polygon><polygon fill-rule="evenodd" clip-rule="evenodd" fill="#ffffff" points="88.2,73.2 50.6,71.7 83.2,52.9 " data-fill-palette-color="accent"></polygon><polygon fill-rule="evenodd" clip-rule="evenodd" fill="#ffffff" points="69.1,60.3 82.8,52.3 77.4,47.4 " data-fill-palette-color="accent"></polygon><polygon fill-rule="evenodd" clip-rule="evenodd" fill="#ffffff" points="48.7,95.2 31.5,61.9 63.9,80.9 " data-fill-palette-color="accent"></polygon><polygon fill-rule="evenodd" clip-rule="evenodd" fill="#ffffff" points="50.5,72.2 64.2,80.2 65.8,73.1 " data-fill-palette-color="accent"></polygon><polygon fill-rule="evenodd" clip-rule="evenodd" fill="#ffffff" points="10.1,72 30.5,40.4 30.1,78 " data-fill-palette-color="accent"></polygon><polygon fill-rule="evenodd" clip-rule="evenodd" fill="#ffffff" points="30.9,62.1 30.8,78 37.8,75.8 " data-fill-palette-color="accent"></polygon><polygon fill-rule="evenodd" clip-rule="evenodd" fill="#ffffff" points="11,27 48.5,28.9 15.8,47.3 " data-fill-palette-color="accent"></polygon><polygon fill-rule="evenodd" clip-rule="evenodd" fill="#ffffff" points="30,40.1 16.1,47.9 21.5,52.9 " data-fill-palette-color="accent"></polygon><polygon fill-rule="evenodd" clip-rule="evenodd" fill="#ffffff" points="48.2,28.3 34.5,20.2 32.9,27.4 " data-fill-palette-color="accent"></polygon></svg></g></svg></g><g></g></svg></g><defs></defs></svg><rect width="391.50290053691594" height="247.2" fill="none" stroke="none" visibility="hidden"></rect></g></svg></g></svg>